<?xml version="1.0" encoding="utf-8"?>
<!-- Generator: Adobe Illustrator 28.1.0, SVG Export Plug-In . SVG Version: 6.00 Build 0)  -->
<svg version="1.1" id="Layer_1" xmlns="http://www.w3.org/2000/svg" xmlns:xlink="http://www.w3.org/1999/xlink" x="0px" y="0px"
	 viewBox="0 0 100 100" style="enable-background:new 0 0 100 100;" xml:space="preserve">
<style type="text/css">
	.st0{fill:url(#SVGID_1_);}
	.st1{fill:url(#SVGID_00000157289212755200342750000017823313551357187746_);}
	.st2{fill:#FFFFFF;}
	.st3{filter:url(#Adobe_OpacityMaskFilter);}
	
		.st4{mask:url(#SVGID_00000157278171121344264360000011776121159709348484_);fill:url(#SVGID_00000053524969346262499880000017989106047584273554_);}
	.st5{fill:url(#SVGID_00000031200852100904043890000013450859918944472986_);}
</style>
<g>
	<linearGradient id="SVGID_1_" gradientUnits="userSpaceOnUse" x1="4.85" y1="50" x2="95.15" y2="50">
		<stop  offset="0" style="stop-color:#036DC4"/>
		<stop  offset="1" style="stop-color:#29B2BA"/>
	</linearGradient>
	<path class="st0" d="M95.2,82.6c0,6.9-5.6,12.5-12.5,12.5H17.4c-6.9,0-12.5-5.6-12.5-12.5V17.4c0-6.9,5.6-12.5,12.5-12.5h65.2
		c6.9,0,12.5,5.6,12.5,12.5L95.2,82.6L95.2,82.6z"/>
	<path class="st2" d="M19.9,37.5h12.5v42.7H19.9V37.5z M26.1,32.4L26.1,32.4c-3.8,0-6.2-2.8-6.2-6.3c0-3.6,2.5-6.3,6.3-6.3
		s6.2,2.7,6.2,6.3C32.4,29.6,30,32.4,26.1,32.4z M80.1,80.1H67.6V57.3c0-5.5-3.1-9.3-8-9.3c-3.8,0-5.8,2.5-6.8,5
		c-0.4,0.9-0.3,3.3-0.3,4.5v22.6H40V37.5h12.5V44c1.8-2.8,4.6-6.6,11.9-6.6c9,0,15.7,5.6,15.7,18.2V80.1L80.1,80.1z"/>
</g>
</svg>
